<?xml version="1.0" encoding="utf-8"?>
<!-- Generator: Adobe Illustrator 19.2.1, SVG Export Plug-In . SVG Version: 6.00 Build 0)  -->
<svg version="1.1" id="Layer_1" xmlns="http://www.w3.org/2000/svg" xmlns:xlink="http://www.w3.org/1999/xlink" x="0px" y="0px"
	 viewBox="0 0 14 14" enable-background="new 0 0 14 14" xml:space="preserve">
<g>
	<path d="M12.751304,3.578593c-0.107516,0.10733-0.281836,0.10733-0.389353,0l-1.946764-1.943386
		c-0.107516-0.10733-0.107516-0.281347,0-0.388677l1.168058-1.166032c0.107517-0.10733,0.281837-0.10733,0.389353,0
		l1.946764,1.943386c0.107517,0.10733,0.107517,0.281347,0,0.388677L12.751304,3.578593z"/>
	<path d="M4.209877,12.105199c-0.107517,0.10733-0.281836,0.10733-0.389353,0L1.87376,10.161813
		c-0.107517-0.10733-0.107517-0.281347,0-0.388678l7.397703-7.384867c0.107517-0.10733,0.281836-0.10733,0.389353,0
		l1.946764,1.943386c0.107517,0.10733,0.107517,0.281347,0,0.388677L4.209877,12.105199z"/>
	<g>
		<path d="M3.047335,12.960937c0.097312,0.097143,0.068251,0.205693-0.064579,0.241223L0.24151,13.9354
			c-0.13283,0.03553-0.212345-0.044054-0.1767-0.176853l0.73432-2.735764c0.035645-0.1328,0.144428-0.161973,0.24174-0.064831
			L3.047335,12.960937z"/>
	</g>
</g>
</svg>
