<?xml version="1.0" encoding="utf-8"?>
<!-- Generator: Adobe Illustrator 18.1.1, SVG Export Plug-In . SVG Version: 6.00 Build 0)  -->
<!DOCTYPE svg PUBLIC "-//W3C//DTD SVG 1.1//EN" "http://www.w3.org/Graphics/SVG/1.1/DTD/svg11.dtd">
<svg version="1.1" id="Layer_1" xmlns="http://www.w3.org/2000/svg" xmlns:xlink="http://www.w3.org/1999/xlink" x="0px" y="0px"
	 viewBox="0 0 14 14" enable-background="new 0 0 14 14" xml:space="preserve">
<g>
	<g>
		<path d="M13.358531,7.5991712H0.6419507C0.3149089,7.5991712,0.0500002,7.3310313,0.0500002,7
			s0.2649087-0.5991712,0.5919505-0.5991712H13.358531c0.32656,0,0.5914688,0.2681398,0.5914688,0.5991712
			S13.685091,7.5991712,13.358531,7.5991712z"/>
	</g>
	<g>
		<path d="M13.358531,2.1983423H0.6419507c-0.3270418,0-0.5919505-0.26814-0.5919505-0.5991712
			S0.3149089,1,0.6419507,1H13.358531c0.32656,0,0.5914688,0.2681401,0.5914688,0.5991712S13.685091,2.1983423,13.358531,2.1983423z
			"/>
	</g>
	<g>
		<path d="M13.358531,13H0.6419507c-0.3270418,0-0.5919505-0.2681398-0.5919505-0.5986834
			s0.2649087-0.5986843,0.5919505-0.5986843H13.358531c0.32656,0,0.5914688,0.2681408,0.5914688,0.5986843
			S13.685091,13,13.358531,13z"/>
	</g>
</g>
</svg>
