<?xml version="1.0" encoding="utf-8"?>
<!-- Generator: Adobe Illustrator 18.1.1, SVG Export Plug-In . SVG Version: 6.00 Build 0)  -->
<!DOCTYPE svg PUBLIC "-//W3C//DTD SVG 1.1//EN" "http://www.w3.org/Graphics/SVG/1.1/DTD/svg11.dtd">
<svg version="1.1" id="Layer_1" xmlns="http://www.w3.org/2000/svg" xmlns:xlink="http://www.w3.org/1999/xlink" x="0px" y="0px"
	 viewBox="0 0 14 14" enable-background="new 0 0 14 14" xml:space="preserve">
<path d="M13.8037109,12.9609375l-3.7364502-3.7364502c0.7877197-0.9718628,1.2618408-2.2078247,1.2618408-3.5535889
	c0-3.1181641-2.5361328-5.6552734-5.6542969-5.6552734S0.0205077,2.5527344,0.0205077,5.6708984
	s2.5361328,5.6542969,5.6542969,5.6542969c1.3412476,0,2.5731201-0.4713135,3.5435181-1.2543335l3.7377319,3.7377319
	c0.1171875,0.1171875,0.2705078,0.1757812,0.4238281,0.1757812s0.3066406-0.0585938,0.4238281-0.1757812
	C14.0380859,13.5751953,14.0380859,13.1943359,13.8037109,12.9609375z M1.2197264,5.6708984
	c0-2.4570312,1.9990236-4.4560547,4.4550781-4.4560547s4.4550781,1.9990234,4.4550781,4.4560547
	c0,2.4560547-1.9990234,4.4550781-4.4550781,4.4550781S1.2197264,8.1269531,1.2197264,5.6708984z"/>
</svg>
